<svg width="306" height="256" viewBox="0 0 306 256" fill="none" xmlns="http://www.w3.org/2000/svg">
<path d="M11.22 26.28L14.76 26.1C17.36 25.98 19.32 24.98 20.64 23.1C21.96 21.22 22.62 18.8 22.62 15.84C22.62 12.88 21.96 10.66 20.64 9.18001C19.32 7.66001 17.4 6.96001 14.88 7.08001L11.4 7.26001C11.28 11.3 11.22 17.64 11.22 26.28ZM28.98 46.02L33.24 46.26V48.36C31.76 48.96 30.08 49.3 28.2 49.38C26.2 49.46 24.68 49.12 23.64 48.36C22.64 47.6 22 46.22 21.72 44.22L20.04 35.1C19.6 32.54 18.94 30.76 18.06 29.76C17.18 28.76 15.78 28.3 13.86 28.38L11.22 28.5C11.22 36.74 11.28 42.84 11.4 46.8L16.02 47.1V49.2L-1.44392e-05 49.98V47.88L4.55999 47.16C4.63999 43.2 4.67999 37.16 4.67999 29.04V26.1C4.67999 18.06 4.63999 12.02 4.55999 7.98001L-1.44392e-05 7.62001V5.46001L16.2 4.68001C20.32 4.48001 23.48 5.32001 25.68 7.20001C27.92 9.08001 29.04 11.82 29.04 15.42C29.04 18.14 28.22 20.56 26.58 22.68C24.98 24.76 22.52 26.2 19.2 27C21.68 27.32 23.48 28.18 24.6 29.58C25.72 30.98 26.52 33.14 27 36.06L28.98 46.02ZM41.2261 31.08L49.4461 30.66C50.4861 30.62 51.1861 30.26 51.5461 29.58C51.9461 28.86 52.1461 27.7 52.1461 26.1C52.1461 23.7 51.6861 21.8 50.7661 20.4C49.8461 18.96 48.6461 18.28 47.1661 18.36C45.5261 18.44 44.1461 19.54 43.0261 21.66C41.9461 23.78 41.3461 26.92 41.2261 31.08ZM57.8461 32.46L41.2261 33.3C41.3061 37.7 42.1261 40.96 43.6861 43.08C45.2461 45.2 47.2461 46.2 49.6861 46.08C52.6861 45.92 55.0861 44.26 56.8861 41.1L57.8461 41.88C56.8861 44.4 55.5261 46.38 53.7661 47.82C52.0061 49.26 49.9261 50.04 47.5261 50.16C43.6861 50.32 40.5661 48.96 38.1661 46.08C35.7661 43.16 34.5661 39.04 34.5661 33.72C34.5661 28.56 35.8461 24.38 38.4061 21.18C40.9661 17.98 44.0261 16.3 47.5861 16.14C50.8261 15.98 53.3861 17.08 55.2661 19.44C57.1861 21.8 58.1461 24.9 58.1461 28.74C58.1461 30.26 58.0461 31.5 57.8461 32.46ZM71.7665 22.92V44.4C73.0865 45.8 74.6865 46.46 76.5665 46.38C81.0865 46.14 83.3465 41.62 83.3465 32.82C83.3465 23.98 81.2065 19.68 76.9265 19.92C75.1265 20 73.4065 21 71.7665 22.92ZM71.2865 17.16L71.5865 21.06C73.7865 17.9 76.5065 16.22 79.7465 16.02C82.7465 15.9 85.2265 17.3 87.1865 20.22C89.1465 23.14 90.1265 27.18 90.1265 32.34C90.1265 37.54 89.0465 41.76 86.8865 45C84.7265 48.24 82.0065 49.94 78.7265 50.1C75.9665 50.26 73.6265 49 71.7065 46.32V50.46C71.7065 52.86 71.7265 56.94 71.7665 62.7L75.9065 63.12V64.92L61.7465 65.58V63.78L65.4065 63.06C65.4865 57.3 65.5265 53.2 65.5265 50.76V31.44C65.5265 28.32 65.4665 25.32 65.3465 22.44L61.4465 22.2V20.7L70.5665 16.56L71.2865 17.16ZM104.226 46.74L107.946 47.04V48.9L94.0261 49.62V47.76L97.6861 47.04C97.8061 43.28 97.8661 39.38 97.8661 35.34V4.92001L93.9661 4.74001V3.06001L103.626 7.39098e-06L104.286 0.480008L104.106 10.08V35.04C104.106 39.04 104.146 42.94 104.226 46.74ZM126.267 43.02V31.2C124.267 32 123.067 32.54 122.667 32.82C119.147 34.7 117.387 37.56 117.387 41.4C117.387 43.12 117.727 44.42 118.407 45.3C119.127 46.14 120.067 46.52 121.227 46.44C122.027 46.4 122.767 46.14 123.447 45.66C124.167 45.14 125.107 44.26 126.267 43.02ZM136.287 44.52L137.127 45.36C135.967 48.16 134.147 49.62 131.667 49.74C128.867 49.9 127.127 48.24 126.447 44.76C124.967 46.76 123.667 48.2 122.547 49.08C121.427 49.92 120.027 50.38 118.347 50.46C116.307 50.58 114.627 49.96 113.307 48.6C112.027 47.2 111.387 45.26 111.387 42.78C111.387 40.22 112.087 38.1 113.487 36.42C114.887 34.74 117.387 33.1 120.987 31.5C122.507 30.78 124.267 30.1 126.267 29.46V26.4C126.267 23.28 125.907 21.18 125.187 20.1C124.467 18.98 123.187 18.46 121.347 18.54C120.547 18.58 119.707 18.74 118.827 19.02L118.167 23.4C117.967 26.48 116.927 28.06 115.047 28.14C113.407 28.22 112.447 27.36 112.167 25.56C112.487 22.8 113.627 20.6 115.587 18.96C117.547 17.28 120.167 16.36 123.447 16.2C126.607 16.04 128.887 16.86 130.287 18.66C131.687 20.42 132.387 23.4 132.387 27.6V43.08C132.387 45.48 132.967 46.64 134.127 46.56C134.767 46.56 135.487 45.88 136.287 44.52ZM163.425 16.44V18.3L160.305 19.02L150.465 52.14C149.025 56.9 147.425 60.36 145.665 62.52C143.905 64.72 142.105 65.86 140.265 65.94C138.945 66.02 137.785 65.66 136.785 64.86C135.825 64.1 135.325 63.12 135.285 61.92C135.405 60.8 135.825 59.94 136.545 59.34C137.265 58.74 138.065 58.4 138.945 58.32C140.425 58.28 141.845 59.2 143.205 61.08L143.865 61.98C145.665 60.1 147.305 56.78 148.785 52.02L138.045 19.92L135.225 19.74V17.88L148.845 17.16V19.02L144.945 19.74L151.665 42.54L157.905 19.2L153.405 18.78V16.92L163.425 16.44ZM159 50.22C157.88 50.26 156.92 49.82 156.12 48.9C155.36 47.94 154.98 46.8 154.98 45.48C154.98 44.08 155.36 42.88 156.12 41.88C156.92 40.84 157.88 40.3 159 40.26C160.08 40.22 161 40.68 161.76 41.64C162.52 42.56 162.9 43.72 162.9 45.12C162.9 46.44 162.52 47.62 161.76 48.66C161 49.66 160.08 50.18 159 50.22ZM11.376 86.876L10.416 106.172C13.488 104.892 16.688 104.156 20.016 103.964C26.16 103.644 31.024 105.34 34.608 109.052C38.192 112.7 39.984 118.044 39.984 125.084C39.984 132.124 38 137.788 34.032 142.076C30.128 146.364 24.976 148.668 18.576 148.988C13.648 149.18 9.71199 147.964 6.76799 145.34C3.82399 142.652 2.09599 138.78 1.58399 133.724C2.35199 131.164 3.88799 129.82 6.19199 129.692C7.59999 129.628 8.68799 130.14 9.45599 131.228C10.224 132.252 10.8 134.076 11.184 136.7L12.432 144.86C13.84 145.372 15.376 145.564 17.04 145.436C20.816 145.244 23.792 143.484 25.968 140.156C28.144 136.764 29.232 132.156 29.232 126.332C29.232 120.764 28.144 116.476 25.968 113.468C23.792 110.46 20.816 109.052 17.04 109.244C14.288 109.436 11.536 110.14 8.78399 111.356L6.57599 110.108L8.39999 76.7L38.064 75.164V85.532L11.376 86.876ZM57.876 86.876L56.916 106.172C59.988 104.892 63.188 104.156 66.516 103.964C72.66 103.644 77.524 105.34 81.108 109.052C84.692 112.7 86.484 118.044 86.484 125.084C86.484 132.124 84.5 137.788 80.532 142.076C76.628 146.364 71.476 148.668 65.076 148.988C60.148 149.18 56.212 147.964 53.268 145.34C50.324 142.652 48.596 138.78 48.084 133.724C48.852 131.164 50.388 129.82 52.692 129.692C54.1 129.628 55.188 130.14 55.956 131.228C56.724 132.252 57.3 134.076 57.684 136.7L58.932 144.86C60.34 145.372 61.876 145.564 63.54 145.436C67.316 145.244 70.292 143.484 72.468 140.156C74.644 136.764 75.732 132.156 75.732 126.332C75.732 120.764 74.644 116.476 72.468 113.468C70.292 110.46 67.316 109.052 63.54 109.244C60.788 109.436 58.036 110.14 55.284 111.356L53.076 110.108L54.9 76.7L84.564 75.164V85.532L57.876 86.876ZM101.592 137.66L132.696 136.124V146.3L95.832 148.124V140.636C100.824 133.276 105.08 127.036 108.6 121.916C113.016 115.324 116.12 110.012 117.912 105.98C119.704 101.884 120.6 97.564 120.6 93.02C120.6 88.348 119.704 84.7 117.912 82.076C116.184 79.388 113.784 78.14 110.712 78.332C109.688 78.396 108.472 78.62 107.064 79.004L105.24 87.932C104.536 92.796 102.84 95.292 100.152 95.42C98.04 95.548 96.504 94.428 95.544 92.06C96.056 86.812 98.04 82.652 101.496 79.58C104.952 76.508 109.112 74.844 113.976 74.588C119.608 74.332 123.832 75.868 126.648 79.196C129.464 82.46 130.872 87.036 130.872 92.924C130.872 95.292 130.52 97.596 129.816 99.836C129.176 102.012 127.928 104.508 126.072 107.324C124.28 110.076 122.328 112.732 120.216 115.292C118.168 117.852 115.224 121.34 111.384 125.756C109.72 127.804 106.456 131.772 101.592 137.66ZM151.251 86.876L150.291 106.172C153.363 104.892 156.563 104.156 159.891 103.964C166.035 103.644 170.899 105.34 174.483 109.052C178.067 112.7 179.859 118.044 179.859 125.084C179.859 132.124 177.875 137.788 173.907 142.076C170.003 146.364 164.851 148.668 158.451 148.988C153.523 149.18 149.587 147.964 146.643 145.34C143.699 142.652 141.971 138.78 141.459 133.724C142.227 131.164 143.763 129.82 146.067 129.692C147.475 129.628 148.563 130.14 149.331 131.228C150.099 132.252 150.675 134.076 151.059 136.7L152.307 144.86C153.715 145.372 155.251 145.564 156.915 145.436C160.691 145.244 163.667 143.484 165.843 140.156C168.019 136.764 169.107 132.156 169.107 126.332C169.107 120.764 168.019 116.476 165.843 113.468C163.667 110.46 160.691 109.052 156.915 109.244C154.163 109.436 151.411 110.14 148.659 111.356L146.451 110.108L148.275 76.7L177.939 75.164V85.532L151.251 86.876ZM227.895 108.668V113.852L209.847 114.716V138.812L205.431 139.004V114.908L187.191 115.868V110.684L205.431 109.724V86.204L209.847 86.012V109.532L227.895 108.668ZM261.408 142.268L272.352 143.42V146.396L239.424 148.028V145.052L250.752 142.844C250.944 136.828 251.04 130.844 251.04 124.892V83.228L241.056 85.052V81.5L260.352 74.78L261.504 75.74L261.12 91.196V124.412C261.12 130.364 261.216 136.316 261.408 142.268ZM22.992 227.212L36.528 226.444V203.116L22.992 203.884V227.212ZM72.432 224.716V227.5L46.32 228.748V249.868C46.32 250.188 46 250.604 45.36 251.116C44.784 251.628 43.856 252.14 42.576 252.652C41.296 253.164 39.888 253.484 38.352 253.612H36.528V229.228L1.00799 231.052L0.335985 228.268L13.392 227.692V201.676L24.048 201.1L36.528 200.428V181.516L22.32 182.284C16.24 192.652 9.13599 200.844 1.00799 206.86L0.239985 205.996C3.75999 200.876 7.21599 194.476 10.608 186.796C14 179.052 16.752 171.18 18.864 163.18L28.272 168.748C26.736 173.356 25.264 176.94 23.856 179.5L70.608 177.196V179.884L46.32 181.036V199.948L68.016 198.892V201.58L46.32 202.636V225.964L72.432 224.716ZM94.2742 180.844V202.924C94.2742 207.02 94.2102 210.54 94.0822 213.484C93.9542 216.428 93.5702 220.044 92.9302 224.332C92.4182 228.556 91.6182 232.332 90.5302 235.66C89.5062 238.988 87.9702 242.444 85.9222 246.028C83.8742 249.676 81.4422 252.908 78.6262 255.724L77.7622 255.052C79.4262 251.404 80.8022 247.468 81.8902 243.244C82.9782 238.956 83.7142 234.412 84.0982 229.612C84.6102 224.812 84.8982 220.588 84.9622 216.94C85.1542 213.292 85.2502 208.78 85.2502 203.404V178.54L95.7142 177.964L115.778 177.004L114.818 176.428C113.858 171.756 111.714 167.628 108.386 164.044L109.058 163.468C115.97 162.956 120.386 164.556 122.306 168.268C123.458 170.572 123.362 172.812 122.018 174.988C121.57 175.756 120.994 176.332 120.29 176.716L150.146 175.276V178.06L94.2742 180.844ZM112.706 207.724L124.802 207.148V194.86L112.706 195.436V207.724ZM126.338 212.908L124.802 213.004V209.932L112.706 210.508V212.908C112.706 213.164 112.354 213.516 111.65 213.964C110.946 214.348 110.018 214.732 108.866 215.116C107.714 215.5 106.626 215.724 105.602 215.788L104.066 215.884V195.916L95.7142 196.3L95.1382 193.612L104.066 193.228V182.668L112.706 183.436V192.748L124.802 192.172V181.612L133.442 182.38V191.692L148.13 191.02V193.708L133.442 194.38V210.028C133.442 210.284 133.09 210.636 132.386 211.084C131.682 211.532 130.754 211.916 129.602 212.236C128.45 212.62 127.362 212.844 126.338 212.908ZM128.258 220.492L105.794 221.644C108.866 227.02 113.314 231.212 119.138 234.22C122.978 230.124 126.018 225.548 128.258 220.492ZM138.146 217.324V222.124C135.202 227.82 131.458 232.844 126.914 237.196C133.122 238.988 141.09 239.916 150.818 239.98V241.132C147.042 242.732 144.706 246.444 143.81 252.268C133.378 250.604 125.154 247.628 119.138 243.34C110.754 249.1 99.9702 253.068 86.7862 255.244L86.4022 253.9C97.4742 250.38 106.754 245.42 114.242 239.02C110.018 234.732 106.626 228.972 104.066 221.74L98.7862 221.932L98.1142 219.34L128.258 217.804L138.146 217.324ZM163.067 255.148C162.939 251.116 162.395 248.332 161.435 246.796C160.539 245.196 158.715 244.14 155.963 243.628V242.284C160.187 242.348 162.779 242.38 163.739 242.38C164.763 242.316 165.275 241.74 165.275 240.652V218.188C164.251 219.084 162.555 220.492 160.187 222.412C159.931 223.756 159.291 224.684 158.267 225.196L154.907 212.716C158.043 211.564 161.499 210.188 165.275 208.588V190.348L156.059 190.828L155.483 188.044L165.275 187.564V165.1L173.723 165.964V187.084L182.075 186.7V189.484L173.723 189.868V205.036C173.979 204.908 177.051 203.564 182.939 201.004L183.131 202.156C178.203 206.764 175.067 209.676 173.723 210.892V241.324C173.723 245.676 173.019 248.908 171.611 251.02C170.267 253.132 167.419 254.508 163.067 255.148ZM213.371 204.844L197.339 205.612C199.451 214.508 203.067 221.964 208.187 227.98C210.555 221.196 212.283 213.484 213.371 204.844ZM222.491 201.58V205.996C220.571 216.812 217.531 225.9 213.371 233.26C217.403 236.716 222.107 239.596 227.483 241.9L227.291 243.052C223.515 243.948 220.891 247.052 219.419 252.364C215.067 249.228 211.323 245.484 208.187 241.132C203.707 246.572 198.491 250.924 192.539 254.188L191.867 253.132C197.179 248.588 201.499 242.796 204.827 235.756C200.667 227.884 197.691 217.868 195.899 205.708L192.923 205.804V250.636C192.923 250.956 192.635 251.372 192.059 251.884C191.547 252.332 190.683 252.78 189.467 253.228C188.379 253.74 187.131 254.028 185.723 254.092L184.187 254.188V170.38L193.979 169.9L211.547 169.036L220.475 168.556V172.876C220.219 179.084 219.739 183.82 219.035 187.084C218.395 190.22 217.339 192.492 215.867 193.9C213.947 195.5 210.907 196.396 206.747 196.588C206.747 193.964 206.235 192.108 205.211 191.02C204.187 189.804 201.915 188.844 198.395 188.14V186.892C203.067 187.084 206.235 187.148 207.899 187.084C208.987 187.02 209.723 186.796 210.107 186.412C211.067 185.26 211.739 180.364 212.123 171.724L192.923 172.684V203.02L212.891 202.06L222.491 201.58ZM254.512 243.724L284.656 242.188V219.052L254.512 220.588V243.724ZM283.888 216.364L293.776 215.788V220.588V249.004C293.712 249.388 292.784 249.964 290.992 250.732C289.2 251.564 287.6 252.012 286.192 252.076L284.656 252.172V244.876L254.512 246.412V251.02C254.512 251.596 253.648 252.332 251.92 253.228C250.256 254.252 248.592 254.796 246.928 254.86H245.68V218.188L255.088 217.804L283.888 216.364ZM305.584 200.428V203.212L234.736 206.764L234.16 203.98L265.072 202.444V184.3L251.632 184.972C248.368 191.628 244.528 197.004 240.112 201.1L239.248 200.332C241.232 196.044 242.992 190.732 244.528 184.396C246.128 178.06 247.248 171.756 247.888 165.484L257.2 169.132C256.048 174.252 254.672 178.604 253.072 182.188L265.072 181.516V163.756L274.48 164.62V181.036L299.728 179.788V182.572L274.48 183.82V201.964L305.584 200.428Z" fill="white"/>
</svg>
